<svg xmlns="http://www.w3.org/2000/svg" width="120" height="126" viewBox="0 0 120 126" fill="none">
  <g filter="url(#filter0_di_74_745)">
    <path fill-rule="evenodd" clip-rule="evenodd" d="M110.745 34.8564C110.677 34.7885 110.414 34.457 110.323 34.4343L107.637 31.6441C109.185 32.6292 110.311 32.77 111.436 33.7551C112.042 34.2851 111.999 35.0216 111.999 35.3031L111.168 34.8564C111.168 34.6591 110.811 34.9222 110.745 34.8564Z" fill="white"/>
    <path fill-rule="evenodd" clip-rule="evenodd" d="M34.4098 47.4362L34.4098 66.7736L32.5 66.7736L32.5 46.4813L34.4098 47.4362Z" fill="white"/>
    <path d="M44.3071 100.743V72.1182C44.3071 71.2682 43.8285 70.4906 43.0696 70.1078L22.0159 59.4876C21.2671 59.1098 20.3831 59.6541 20.3831 60.4928V89.1173C20.3831 89.9673 20.8617 90.7449 21.6206 91.1277L42.6742 101.748C43.423 102.126 44.3071 101.581 44.3071 100.743Z" fill="white"/>
    <path fill-rule="evenodd" clip-rule="evenodd" d="M61.1123 8.38629L71.7537 13.707L50.6817 25.7169C49.3911 26.4525 49.3975 28.315 50.693 29.0418L57.4901 32.8548L33.2679 45.8468C32.9438 46.0205 32.6835 46.2801 32.5087 46.5887L8.46715 34.5834C7.84446 34.2724 7.84424 33.384 8.46676 33.0727L57.8396 8.38629C58.8697 7.87124 60.0822 7.87124 61.1123 8.38629ZM34.2779 47.4722L59.1284 59.8815C59.366 60.0002 59.6457 60.0001 59.8832 59.8813L84.689 47.4802L59.8751 34.171C59.6258 34.0373 59.3261 34.0373 59.0769 34.171L34.2779 47.4722ZM86.4496 46.6001L110.486 34.5836C111.108 34.2725 111.108 33.3843 110.486 33.0731L73.5203 14.5903L52.052 27.1282C51.8641 27.2379 51.8664 27.5103 52.0562 27.6167L59.9425 32.0407L59.9108 32.0972C60.0719 32.1349 60.2293 32.1938 60.3787 32.2739L85.6841 45.8468C86.012 46.0227 86.2748 46.2865 86.4496 46.6001Z" fill="white"/>
    <path fill-rule="evenodd" clip-rule="evenodd" d="M81.3886 45.7117L59.9793 56.1811C59.6896 56.3227 59.5059 56.6171 59.5059 56.9396V89.9125L99.3674 69.9845C99.3517 69.7194 99.3437 69.3766 99.3437 68.9362V60.4883C99.3437 60.0619 98.888 59.7903 98.5129 59.9932L87.5997 65.8971C86.3272 66.5855 84.7811 65.6641 84.7811 64.2173V47.6998C84.7811 47.5961 84.7241 47.5008 84.6327 47.4517L81.3886 45.7117ZM101.357 68.9897L111.997 63.6708V34.9436C111.997 34.3842 111.463 33.9794 110.924 34.1306L105.243 35.7253L98.2066 38.6806L85.1187 43.8876L83.5021 44.6781L85.6838 45.8483C86.304 46.1809 86.691 46.8276 86.691 47.5313V63.2728C86.691 63.6992 87.1467 63.9708 87.5217 63.7679L98.4349 57.864C99.7074 57.1756 101.253 58.097 101.253 59.5438V68.9362L101.357 68.9897Z" fill="white"/>
    <path fill-rule="evenodd" clip-rule="evenodd" d="M59.5054 88.2895V116.734C59.5054 117.362 60.1661 117.771 60.7275 117.49L99.0952 98.295L99.3348 68.341L59.5054 88.2895ZM101.263 67.3752L101.015 97.3313L99.3436 98.1707L111.53 92.0742C111.816 91.9311 111.996 91.6388 111.996 91.3191V61.9995L101.263 67.3752Z" fill="white"/>
    <path d="M59.507 61.1966C59.507 60.1833 58.9441 59.7893 58.6626 59.6486V59.5078H60.3514V61.1966H59.507Z" fill="white"/>
    <path fill-rule="evenodd" clip-rule="evenodd" d="M59.507 61.1966C59.507 60.1833 58.9441 59.7893 58.6626 59.6486V59.5078H60.3514V61.1966H59.507ZM60.2106 61.0559V59.6486H58.9357C59.0554 59.7332 59.187 59.8509 59.3043 60.0128C59.4811 60.2568 59.6205 60.5943 59.6442 61.0559H60.2106Z" fill="white"/>
  </g>
  <defs>
    <filter id="filter0_di_74_745" x="0" y="0" width="120" height="125.58" filterUnits="userSpaceOnUse" color-interpolation-filters="sRGB">
      <feFlood flood-opacity="0" result="BackgroundImageFix"/>
      <feColorMatrix in="SourceAlpha" type="matrix" values="0 0 0 0 0 0 0 0 0 0 0 0 0 0 0 0 0 0 127 0" result="hardAlpha"/>
      <feOffset/>
      <feGaussianBlur stdDeviation="4"/>
      <feComposite in2="hardAlpha" operator="out"/>
      <feColorMatrix type="matrix" values="0 0 0 0 1 0 0 0 0 0.207843 0 0 0 0 0.917647 0 0 0 0.87 0"/>
      <feBlend mode="normal" in2="BackgroundImageFix" result="effect1_dropShadow_74_745"/>
      <feBlend mode="normal" in="SourceGraphic" in2="effect1_dropShadow_74_745" result="shape"/>
      <feColorMatrix in="SourceAlpha" type="matrix" values="0 0 0 0 0 0 0 0 0 0 0 0 0 0 0 0 0 0 127 0" result="hardAlpha"/>
      <feOffset dy="4"/>
      <feGaussianBlur stdDeviation="2"/>
      <feComposite in2="hardAlpha" operator="arithmetic" k2="-1" k3="1"/>
      <feColorMatrix type="matrix" values="0 0 0 0 0.117647 0 0 0 0 0.788235 0 0 0 0 1 0 0 0 1 0"/>
      <feBlend mode="normal" in2="shape" result="effect2_innerShadow_74_745"/>
    </filter>
  </defs>
</svg>